Sans Serif-Bold.ufo
<glyph name="comma" format="2">
	<advance width="273"/>
	<unicode hex="002C"/>
	<outline>
		<contour>
			<point x="60" y="64" type="curve" smooth="yes"/>
			<point x="60" y="-3"/>
			<point x="138" y="-36"/>
			<point x="200" y="14" type="curve"/>
			<point x="124" y="111" type="line"/>
			<point x="128" y="28"/>
			<point x="127" y="10"/>
			<point x="67" y="-63" type="curve"/>
			<point x="131" y="-114" type="line"/>
			<point x="189" y="-54"/>
			<point x="213" y="-10"/>
			<point x="213" y="42" type="curve" smooth="yes"/>
			<point x="213" y="102"/>
			<point x="184" y="140"/>
			<point x="137" y="140" type="curve" smooth="yes"/>
			<point x="94" y="140"/>
			<point x="60" y="107"/>
		</contour>
	</outline>
</glyph>
<glyph name="hyphen" format="2">
	<advance width="480"/>
	<unicode hex="002D"/>
	<outline>
		<contour>
			<point x="60" y="409" type="line"/>
			<point x="60" y="299" type="line"/>
			<point x="420" y="299" type="line"/>
			<point x="420" y="409" type="line"/>
		</contour>
	</outline>
</glyph>
<glyph name="period" format="2">
	<advance width="270"/>
	<unicode hex="002E"/>
	<outline>
		<contour>
			<point x="134" y="-10" type="curve" smooth="yes"/>
			<point x="175" y="-10"/>
			<point x="210" y="24"/>
			<point x="210" y="65" type="curve" smooth="yes"/>
			<point x="210" y="106"/>
			<point x="176" y="140"/>
			<point x="134" y="140" type="curve" smooth="yes"/>
			<point x="93" y="140"/>
			<point x="60" y="106"/>
			<point x="60" y="65" type="curve" smooth="yes"/>
			<point x="60" y="24"/>
			<point x="93" y="-10"/>
		</contour>
	</outline>
</glyph>
<glyph name="zero" format="2">
	<advance width="770"/>
	<unicode hex="0030"/>
	<outline>
		<contour>
			<point x="390" y="-15" type="curve" smooth="yes"/>
			<point x="566" y="-15"/>
			<point x="711" y="158"/>
			<point x="710" y="350" type="curve" smooth="yes"/>
			<point x="709" y="542"/>
			<point x="565" y="715"/>
			<point x="389" y="715" type="curve" smooth="yes"/>
			<point x="205" y="715"/>
			<point x="59" y="545"/>
			<point x="60" y="350" type="curve" smooth="yes"/>
			<point x="61" y="155"/>
			<point x="206" y="-15"/>
		</contour>
		<contour>
			<point x="390" y="95" type="curve" smooth="yes"/>
			<point x="277" y="95"/>
			<point x="186" y="218"/>
			<point x="185" y="350" type="curve" smooth="yes"/>
			<point x="184" y="482"/>
			<point x="276" y="605"/>
			<point x="389" y="605" type="curve" smooth="yes"/>
			<point x="493" y="605"/>
			<point x="584" y="480"/>
			<point x="585" y="350" type="curve" smooth="yes"/>
			<point x="586" y="220"/>
			<point x="494" y="95"/>
		</contour>
	</outline>
</glyph>
<glyph name="one" format="2">
	<advance width="427"/>
	<unicode hex="0031"/>
	<outline>
		<contour>
			<point x="156" y="700" type="line"/>
			<point x="156" y="0" type="line"/>
			<point x="281" y="0" type="line"/>
			<point x="281" y="700" type="line"/>
		</contour>
		<contour>
			<point x="60" y="651" type="line"/>
			<point x="60" y="551" type="line"/>
			<point x="232" y="551" type="line"/>
			<point x="232" y="651" type="line"/>
		</contour>
		<contour>
			<point x="193" y="690" type="line"/>
			<point x="156" y="700" type="line"/>
			<point x="156" y="667"/>
			<point x="134" y="651"/>
			<point x="80" y="651" type="curve"/>
			<point x="76" y="612" type="line"/>
			<point x="277" y="565" type="line"/>
		</contour>
		<contour>
			<point x="60" y="110" type="line"/>
			<point x="60" y="0" type="line"/>
			<point x="206" y="0" type="line"/>
			<point x="206" y="110" type="line"/>
		</contour>
		<contour>
			<point x="231" y="110" type="line"/>
			<point x="231" y="0" type="line"/>
			<point x="367" y="0" type="line"/>
			<point x="367" y="110" type="line"/>
		</contour>
	</outline>
</glyph>
<glyph name="two" format="2">
	<advance width="640"/>
	<unicode hex="0032"/>
	<outline>
		<contour>
			<point x="60" y="70" type="curve"/>
			<point x="189" y="70" type="line"/>
			<point x="183" y="224"/>
			<point x="247" y="224"/>
			<point x="336" y="248" type="curve" smooth="yes"/>
			<point x="443" y="277"/>
			<point x="575" y="315"/>
			<point x="575" y="465" type="curve" smooth="yes"/>
			<point x="575" y="600"/>
			<point x="470" y="700"/>
			<point x="326" y="700" type="curve" smooth="yes"/>
			<point x="174" y="700"/>
			<point x="53" y="584"/>
			<point x="66" y="445" type="curve"/>
			<point x="192" y="445" type="line"/>
			<point x="179" y="523"/>
			<point x="243" y="590"/>
			<point x="326" y="590" type="curve" smooth="yes"/>
			<point x="399" y="590"/>
			<point x="450" y="539"/>
			<point x="450" y="465" type="curve" smooth="yes"/>
			<point x="450" y="410"/>
			<point x="415" y="394"/>
			<point x="307" y="367" type="curve" smooth="yes"/>
			<point x="140" y="326"/>
			<point x="54" y="242"/>
		</contour>
		<contour>
			<point x="60" y="0" type="line"/>
			<point x="580" y="0" type="line"/>
			<point x="580" y="110" type="line"/>
			<point x="60" y="110" type="line"/>
		</contour>
	</outline>
</glyph>
<glyph name="three" format="2">
	<advance width="709"/>
	<unicode hex="0033"/>
	<outline>
		<contour>
			<point x="358" y="-15" type="curve" smooth="yes"/>
			<point x="537" y="-15"/>
			<point x="649" y="71"/>
			<point x="649" y="210" type="curve" smooth="yes"/>
			<point x="649" y="361"/>
			<point x="530" y="431"/>
			<point x="339" y="425" type="curve"/>
			<point x="339" y="315" type="line"/>
			<point x="464" y="319"/>
			<point x="524" y="293"/>
			<point x="524" y="210" type="curve" smooth="yes"/>
			<point x="524" y="141"/>
			<point x="466" y="95"/>
			<point x="358" y="95" type="curve" smooth="yes"/>
			<point x="237" y="95"/>
			<point x="186" y="150"/>
			<point x="185" y="230" type="curve"/>
			<point x="60" y="230" type="line"/>
			<point x="61" y="86"/>
			<point x="168" y="-15"/>
		</contour>
		<contour>
			<point x="339" y="426" type="curve"/>
			<point x="339" y="315" type="line"/>
			<point x="504" y="308"/>
			<point x="619" y="375"/>
			<point x="619" y="506" type="curve" smooth="yes"/>
			<point x="619" y="630"/>
			<point x="512" y="715"/>
			<point x="359" y="715" type="curve" smooth="yes"/>
			<point x="194" y="715"/>
			<point x="91" y="614"/>
			<point x="90" y="486" type="curve"/>
			<point x="216" y="486" type="line"/>
			<point x="216" y="550"/>
			<point x="262" y="605"/>
			<point x="359" y="605" type="curve" smooth="yes"/>
			<point x="444" y="605"/>
			<point x="494" y="562"/>
			<point x="494" y="506" type="curve" smooth="yes"/>
			<point x="494" y="444"/>
			<point x="434" y="419"/>
		</contour>
		<contour>
			<point x="263" y="425" type="line"/>
			<point x="263" y="315" type="line"/>
			<point x="379" y="315" type="line"/>
			<point x="379" y="425" type="line"/>
		</contour>
	</outline>
</glyph>
<glyph name="four" format="2">
	<advance width="713"/>
	<unicode hex="0034"/>
	<outline>
		<contour>
			<point x="401" y="700" type="line"/>
			<point x="401" y="0" type="line"/>
			<point x="526" y="0" type="line"/>
			<point x="526" y="700" type="line"/>
		</contour>
		<contour>
			<point x="60" y="264" type="line"/>
			<point x="60" y="154" type="line"/>
			<point x="613" y="154" type="line"/>
			<point x="613" y="264" type="line"/>
		</contour>
		<contour>
			<point x="396" y="700" type="line"/>
			<point x="60" y="264" type="line"/>
			<point x="191" y="264" type="line"/>
			<point x="526" y="700" type="line"/>
		</contour>
	</outline>
</glyph>
<glyph name="five" format="2">
	<advance width="690"/>
	<unicode hex="0035"/>
	<outline>
		<contour>
			<point x="321" y="460" type="curve"/>
			<point x="321" y="349" type="line"/>
			<point x="439" y="355"/>
			<point x="505" y="320"/>
			<point x="505" y="235" type="curve" smooth="yes"/>
			<point x="505" y="152"/>
			<point x="443" y="110"/>
			<point x="340" y="110" type="curve" smooth="yes"/>
			<point x="236" y="110"/>
			<point x="175" y="166"/>
			<point x="186" y="255" type="curve"/>
			<point x="61" y="255" type="line"/>
			<point x="49" y="106"/>
			<point x="167" y="0"/>
			<point x="340" y="0" type="curve" smooth="yes"/>
			<point x="514" y="0"/>
			<point x="630" y="90"/>
			<point x="630" y="241" type="curve" smooth="yes"/>
			<point x="630" y="389"/>
			<point x="516" y="464"/>
		</contour>
		<contour>
			<point x="120" y="700" type="line"/>
			<point x="120" y="590" type="line"/>
			<point x="586" y="590" type="line"/>
			<point x="586" y="700" type="line"/>
		</contour>
		<contour>
			<point x="122" y="700" type="line"/>
			<point x="90" y="350" type="line"/>
			<point x="215" y="350" type="line"/>
			<point x="247" y="700" type="line"/>
		</contour>
		<contour>
			<point x="120" y="460" type="line"/>
			<point x="120" y="350" type="line"/>
			<point x="361" y="350" type="line"/>
			<point x="361" y="460" type="line"/>
		</contour>
	</outline>
</glyph>
<glyph name="six" format="2">
	<advance width="690"/>
	<unicode hex="0036"/>
	<outline>
		<contour>
			<point x="630" y="215" type="curve" smooth="yes"/>
			<point x="630" y="350"/>
			<point x="529" y="443"/>
			<point x="368" y="445" type="curve" smooth="yes"/>
			<point x="282" y="445"/>
			<point x="176" y="418"/>
			<point x="194" y="373" type="curve"/>
			<point x="230" y="333" type="line"/>
			<point x="460" y="700" type="line"/>
			<point x="321" y="700" type="line"/>
			<point x="270" y="619"/>
			<point x="241" y="575"/>
			<point x="208" y="523" type="curve" smooth="yes"/>
			<point x="84" y="330"/>
			<point x="60" y="292"/>
			<point x="60" y="210" type="curve" smooth="yes"/>
			<point x="60" y="81"/>
			<point x="175" y="-15"/>
			<point x="340" y="-15" type="curve" smooth="yes"/>
			<point x="514" y="-15"/>
			<point x="630" y="80"/>
		</contour>
		<contour>
			<point x="505" y="215" type="curve" smooth="yes"/>
			<point x="505" y="149"/>
			<point x="443" y="95"/>
			<point x="340" y="95" type="curve" smooth="yes"/>
			<point x="244" y="95"/>
			<point x="185" y="148"/>
			<point x="185" y="210" type="curve" smooth="yes"/>
			<point x="185" y="291"/>
			<point x="230" y="335"/>
			<point x="341" y="335" type="curve" smooth="yes"/>
			<point x="452" y="335"/>
			<point x="505" y="287"/>
		</contour>
	</outline>
</glyph>
<glyph name="seven" format="2">
	<advance width="646"/>
	<unicode hex="0037"/>
	<outline>
		<contour>
			<point x="60" y="590" type="line"/>
			<point x="563" y="590" type="line"/>
			<point x="492" y="688" type="line"/>
			<point x="133" y="0" type="line"/>
			<point x="273" y="0" type="line"/>
			<point x="586" y="605" type="line"/>
			<point x="586" y="700" type="line"/>
			<point x="60" y="700" type="line"/>
		</contour>
	</outline>
</glyph>
<glyph name="eight" format="2">
	<advance width="730"/>
	<unicode hex="0038"/>
	<outline>
		<contour>
			<point x="369" y="-15" type="curve" smooth="yes"/>
			<point x="556" y="-15"/>
			<point x="670" y="65"/>
			<point x="670" y="200" type="curve" smooth="yes"/>
			<point x="670" y="342"/>
			<point x="558" y="425"/>
			<point x="370" y="425" type="curve" smooth="yes"/>
			<point x="178" y="425"/>
			<point x="60" y="342"/>
			<point x="60" y="200" type="curve" smooth="yes"/>
			<point x="60" y="67"/>
			<point x="179" y="-15"/>
		</contour>
		<contour>
			<point x="369" y="95" type="curve" smooth="yes"/>
			<point x="250" y="95"/>
			<point x="185" y="132"/>
			<point x="185" y="200" type="curve" smooth="yes"/>
			<point x="185" y="277"/>
			<point x="248" y="315"/>
			<point x="370" y="315" type="curve" smooth="yes"/>
			<point x="490" y="315"/>
			<point x="545" y="280"/>
			<point x="545" y="200" type="curve" smooth="yes"/>
			<point x="545" y="130"/>
			<point x="485" y="95"/>
		</contour>
		<contour>
			<point x="370" y="315" type="curve" smooth="yes"/>
			<point x="532" y="315"/>
			<point x="640" y="394"/>
			<point x="640" y="516" type="curve" smooth="yes"/>
			<point x="640" y="636"/>
			<point x="531" y="715"/>
			<point x="370" y="715" type="curve" smooth="yes"/>
			<point x="205" y="715"/>
			<point x="90" y="635"/>
			<point x="90" y="516" type="curve" smooth="yes"/>
			<point x="90" y="400"/>
			<point x="210" y="315"/>
		</contour>
		<contour>
			<point x="370" y="425" type="curve" smooth="yes"/>
			<point x="276" y="425"/>
			<point x="215" y="461"/>
			<point x="215" y="516" type="curve" smooth="yes"/>
			<point x="215" y="571"/>
			<point x="275" y="605"/>
			<point x="370" y="605" type="curve" smooth="yes"/>
			<point x="463" y="605"/>
			<point x="515" y="573"/>
			<point x="515" y="516" type="curve" smooth="yes"/>
			<point x="515" y="458"/>
			<point x="462" y="425"/>
		</contour>
	</outline>
</glyph>
<glyph name="nine" format="2">
	<advance width="690"/>
	<unicode hex="0039"/>
	<outline>
		<contour>
			<point x="60" y="481" type="curve" smooth="yes"/>
			<point x="60" y="325"/>
			<point x="159" y="235"/>
			<point x="326" y="235" type="curve" smooth="yes"/>
			<point x="409" y="235"/>
			<point x="514" y="263"/>
			<point x="496" y="307" type="curve"/>
			<point x="461" y="347" type="line"/>
			<point x="230" y="0" type="line"/>
			<point x="370" y="0" type="line"/>
			<point x="414" y="66"/>
			<point x="437" y="101"/>
			<point x="468" y="147" type="curve" smooth="yes"/>
			<point x="604" y="348"/>
			<point x="630" y="382"/>
			<point x="630" y="481" type="curve" smooth="yes"/>
			<point x="630" y="623"/>
			<point x="518" y="715"/>
			<point x="350" y="715" type="curve" smooth="yes"/>
			<point x="177" y="715"/>
			<point x="60" y="623"/>
		</contour>
		<contour>
			<point x="185" y="481" type="curve" smooth="yes"/>
			<point x="185" y="559"/>
			<point x="247" y="605"/>
			<point x="350" y="605" type="curve" smooth="yes"/>
			<point x="449" y="605"/>
			<point x="505" y="562"/>
			<point x="505" y="481" type="curve" smooth="yes"/>
			<point x="505" y="382"/>
			<point x="460" y="345"/>
			<point x="346" y="345" type="curve" smooth="yes"/>
			<point x="233" y="345"/>
			<point x="185" y="384"/>
		</contour>
	</outline>
</glyph>
<glyph name="A" format="2">
	<advance width="723"/>
	<unicode hex="0041"/>
	<outline>
		<contour>
			<point x="298" y="700" type="line"/>
			<point x="60" y="0" type="line"/>
			<point x="187" y="0" type="line"/>
			<point x="416" y="700" type="line"/>
		</contour>
		<contour>
			<point x="298" y="700" type="line"/>
			<point x="529" y="0" type="line"/>
			<point x="663" y="0" type="line"/>
			<point x="425" y="700" type="line"/>
		</contour>
		<contour>
			<point x="172" y="242" type="line"/>
			<point x="172" y="132" type="line"/>
			<point x="544" y="132" type="line"/>
			<point x="544" y="242" type="line"/>
		</contour>
	</outline>
</glyph>
<glyph name="B" format="2">
	<advance width="718"/>
	<unicode hex="0042"/>
	<outline>
		<contour>
			<point x="300" y="318" type="line"/>
			<point x="519" y="318"/>
			<point x="618" y="377"/>
			<point x="618" y="503" type="curve" smooth="yes"/>
			<point x="618" y="621"/>
			<point x="511" y="700"/>
			<point x="344" y="700" type="curve" smooth="yes"/>
			<point x="134" y="700" type="line"/>
			<point x="151" y="590" type="line"/>
			<point x="344" y="590" type="line" smooth="yes"/>
			<point x="445" y="590"/>
			<point x="492" y="560"/>
			<point x="492" y="503" type="curve" smooth="yes"/>
			<point x="492" y="423"/>
			<point x="419" y="418"/>
			<point x="300" y="418" type="curve" smooth="yes"/>
			<point x="160" y="418" type="line"/>
			<point x="145" y="318" type="line"/>
		</contour>
		<contour>
			<point x="100" y="0" type="line"/>
			<point x="225" y="0" type="line"/>
			<point x="225" y="700" type="line"/>
			<point x="100" y="700" type="line"/>
		</contour>
		<contour>
			<point x="333" y="0" type="line"/>
			<point x="546" y="0"/>
			<point x="658" y="73"/>
			<point x="658" y="207" type="curve" smooth="yes"/>
			<point x="658" y="342"/>
			<point x="543" y="408"/>
			<point x="300" y="408" type="curve" smooth="yes"/>
			<point x="133" y="408" type="line"/>
			<point x="151" y="308" type="line"/>
			<point x="300" y="308" type="line" smooth="yes"/>
			<point x="476" y="308"/>
			<point x="532" y="280"/>
			<point x="532" y="207" type="curve" smooth="yes"/>
			<point x="532" y="137"/>
			<point x="482" y="110"/>
			<point x="333" y="110" type="curve" smooth="yes"/>
			<point x="159" y="110" type="line"/>
			<point x="145" y="0" type="line"/>
		</contour>
	</outline>
</glyph>
<glyph name="C" format="2">
	<advance width="801"/>
	<unicode hex="0043"/>
	<outline>
		<contour>
			<point x="60" y="350" type="curve" smooth="yes"/>
			<point x="60" y="145"/>
			<point x="216" y="-15"/>
			<point x="438" y="-15" type="curve" smooth="yes"/>
			<point x="564" y="-15"/>
			<point x="666" y="23"/>
			<point x="741" y="123" type="curve"/>
			<point x="653" y="197" type="line"/>
			<point x="598" y="123"/>
			<point x="529" y="95"/>
			<point x="438" y="95" type="curve" smooth="yes"/>
			<point x="296" y="95"/>
			<point x="186" y="215"/>
			<point x="186" y="350" type="curve" smooth="yes"/>
			<point x="186" y="485"/>
			<point x="296" y="605"/>
			<point x="438" y="605" type="curve" smooth="yes"/>
			<point x="520" y="605"/>
			<point x="589" y="578"/>
			<point x="643" y="504" type="curve"/>
			<point x="730" y="576" type="line"/>
			<point x="650" y="682"/>
			<point x="544" y="715"/>
			<point x="438" y="715" type="curve" smooth="yes"/>
			<point x="216" y="715"/>
			<point x="60" y="555"/>
		</contour>
	</outline>
</glyph>
<glyph name="D" format="2">
	<advance width="810"/>
	<unicode hex="0044"/>
	<outline>
		<contour>
			<point x="342" y="0" type="line"/>
			<point x="595" y="0"/>
			<point x="750" y="142"/>
			<point x="750" y="350" type="curve" smooth="yes"/>
			<point x="750" y="558"/>
			<point x="595" y="700"/>
			<point x="342" y="700" type="curve" smooth="yes"/>
			<point x="136" y="700" type="line"/>
			<point x="153" y="590" type="line"/>
			<point x="342" y="590" type="line" smooth="yes"/>
			<point x="522" y="590"/>
			<point x="624" y="496"/>
			<point x="624" y="350" type="curve" smooth="yes"/>
			<point x="624" y="204"/>
			<point x="522" y="110"/>
			<point x="342" y="110" type="curve" smooth="yes"/>
			<point x="161" y="110" type="line"/>
			<point x="147" y="0" type="line"/>
		</contour>
		<contour>
			<point x="100" y="0" type="line"/>
			<point x="225" y="0" type="line"/>
			<point x="225" y="700" type="line"/>
			<point x="100" y="700" type="line"/>
		</contour>
	</outline>
</glyph>
<glyph name="E" format="2">
	<advance width="719"/>
	<unicode hex="0045"/>
	<outline>
		<contour>
			<point x="100" y="700" type="line"/>
			<point x="100" y="0" type="line"/>
			<point x="225" y="0" type="line"/>
			<point x="225" y="700" type="line"/>
		</contour>
		<contour>
			<point x="158" y="110" type="line"/>
			<point x="158" y="0" type="line"/>
			<point x="644" y="0" type="line"/>
			<point x="644" y="110" type="line"/>
		</contour>
		<contour>
			<point x="158" y="700" type="line"/>
			<point x="158" y="590" type="line"/>
			<point x="634" y="590" type="line"/>
			<point x="634" y="700" type="line"/>
		</contour>
		<contour>
			<point x="158" y="418" type="line"/>
			<point x="158" y="308" type="line"/>
			<point x="594" y="308" type="line"/>
			<point x="594" y="418" type="line"/>
		</contour>
	</outline>
</glyph>
<glyph name="F" format="2">
	<advance width="694"/>
	<unicode hex="0046"/>
	<outline>
		<contour>
			<point x="100" y="700" type="line"/>
			<point x="100" y="0" type="line"/>
			<point x="225" y="0" type="line"/>
			<point x="225" y="700" type="line"/>
		</contour>
		<contour>
			<point x="158" y="700" type="line"/>
			<point x="158" y="590" type="line"/>
			<point x="634" y="590" type="line"/>
			<point x="634" y="700" type="line"/>
		</contour>
		<contour>
			<point x="158" y="398" type="line"/>
			<point x="158" y="288" type="line"/>
			<point x="594" y="288" type="line"/>
			<point x="594" y="398" type="line"/>
		</contour>
	</outline>
</glyph>
<glyph name="G" format="2">
	<advance width="798"/>
	<unicode hex="0047"/>
	<outline>
		<contour>
			<point x="603" y="354" type="line"/>
			<point x="603" y="90" type="line"/>
			<point x="728" y="123" type="line"/>
			<point x="728" y="354" type="line"/>
		</contour>
		<contour>
			<point x="382" y="388" type="line"/>
			<point x="382" y="278" type="line"/>
			<point x="728" y="278" type="line"/>
			<point x="728" y="388" type="line"/>
		</contour>
		<contour>
			<point x="60" y="350" type="curve" smooth="yes"/>
			<point x="60" y="145"/>
			<point x="216" y="-15"/>
			<point x="428" y="-15" type="curve" smooth="yes"/>
			<point x="544" y="-15"/>
			<point x="653" y="23"/>
			<point x="728" y="123" type="curve"/>
			<point x="653" y="197" type="line"/>
			<point x="598" y="123"/>
			<point x="509" y="95"/>
			<point x="428" y="95" type="curve" smooth="yes"/>
			<point x="296" y="95"/>
			<point x="186" y="215"/>
			<point x="186" y="350" type="curve" smooth="yes"/>
			<point x="186" y="485"/>
			<point x="296" y="605"/>
			<point x="418" y="605" type="curve" smooth="yes"/>
			<point x="500" y="605"/>
			<point x="569" y="578"/>
			<point x="623" y="504" type="curve"/>
			<point x="710" y="576" type="line"/>
			<point x="630" y="682"/>
			<point x="524" y="715"/>
			<point x="418" y="715" type="curve" smooth="yes"/>
			<point x="216" y="715"/>
			<point x="60" y="555"/>
		</contour>
	</outline>
</glyph>
<glyph name="H" format="2">
	<advance width="800"/>
	<unicode hex="0048"/>
	<outline>
		<contour>
			<point x="100" y="700" type="line"/>
			<point x="100" y="0" type="line"/>
			<point x="225" y="0" type="line"/>
			<point x="225" y="700" type="line"/>
		</contour>
		<contour>
			<point x="575" y="700" type="line"/>
			<point x="575" y="0" type="line"/>
			<point x="700" y="0" type="line"/>
			<point x="700" y="700" type="line"/>
		</contour>
		<contour>
			<point x="158" y="408" type="line"/>
			<point x="158" y="298" type="line"/>
			<point x="644" y="298" type="line"/>
			<point x="644" y="408" type="line"/>
		</contour>
	</outline>
</glyph>
<glyph name="J" format="2">
	<advance width="418"/>
	<unicode hex="004A"/>
	<outline>
		<contour>
			<point x="60" y="101" type="curve"/>
			<point x="60" y="-10" type="line"/>
			<point x="234" y="-18"/>
			<point x="325" y="79"/>
			<point x="318" y="265" type="curve"/>
			<point x="197" y="265" type="line"/>
			<point x="205" y="153"/>
			<point x="151" y="90"/>
		</contour>
		<contour>
			<point x="198" y="214" type="line"/>
			<point x="318" y="214" type="line"/>
			<point x="318" y="700" type="line"/>
			<point x="198" y="700" type="line"/>
		</contour>
		<contour>
			<point x="60" y="700" type="line"/>
			<point x="60" y="590" type="line"/>
			<point x="260" y="590" type="line"/>
			<point x="260" y="700" type="line"/>
		</contour>
	</outline>
</glyph>
<glyph name="K" format="2">
	<advance width="775"/>
	<unicode hex="004B"/>
	<outline>
		<contour>
			<point x="100" y="0" type="line"/>
			<point x="225" y="0" type="line"/>
			<point x="225" y="700" type="line"/>
			<point x="100" y="700" type="line"/>
		</contour>
		<contour>
			<point x="730" y="0" type="line"/>
			<point x="299" y="435" type="line"/>
			<point x="234" y="324" type="line"/>
			<point x="556" y="0" type="line"/>
		</contour>
		<contour>
			<point x="131" y="148" type="line"/>
			<point x="703" y="700" type="line"/>
			<point x="537" y="700" type="line"/>
			<point x="124" y="301" type="line"/>
		</contour>
	</outline>
</glyph>
<glyph name="L" format="2">
	<advance width="684"/>
	<unicode hex="004C"/>
	<outline>
		<contour>
			<point x="100" y="700" type="line"/>
			<point x="100" y="0" type="line"/>
			<point x="225" y="0" type="line"/>
			<point x="225" y="700" type="line"/>
		</contour>
		<contour>
			<point x="158" y="110" type="line"/>
			<point x="158" y="0" type="line"/>
			<point x="624" y="0" type="line"/>
			<point x="624" y="110" type="line"/>
		</contour>
	</outline>
</glyph>
<glyph name="M" format="2">
	<advance width="950"/>
	<unicode hex="004D"/>
	<outline>
		<contour>
			<point x="100" y="700" type="line"/>
			<point x="100" y="0" type="line"/>
			<point x="220" y="0" type="line"/>
			<point x="220" y="350" type="line"/>
			<point x="210" y="604" type="line"/>
			<point x="210" y="700" type="line"/>
		</contour>
		<contour>
			<point x="734" y="700" type="line"/>
			<point x="735" y="593" type="line"/>
			<point x="725" y="350" type="line"/>
			<point x="725" y="0" type="line"/>
			<point x="850" y="0" type="line"/>
			<point x="850" y="700" type="line"/>
		</contour>
		<contour>
			<point x="210" y="700" type="line"/>
			<point x="153" y="593" type="line"/>
			<point x="229" y="459" type="line"/>
			<point x="434" y="175" type="line"/>
			<point x="508" y="175" type="line"/>
			<point x="536" y="246" type="line"/>
		</contour>
		<contour>
			<point x="734" y="700" type="line"/>
			<point x="410" y="234" type="line"/>
			<point x="508" y="175" type="line"/>
			<point x="712" y="459" type="line"/>
			<point x="810" y="627" type="line"/>
		</contour>
	</outline>
</glyph>
<glyph name="N" format="2">
	<advance width="800"/>
	<unicode hex="004E"/>
	<outline>
		<contour>
			<point x="100" y="700" type="line"/>
			<point x="100" y="0" type="line"/>
			<point x="220" y="0" type="line"/>
			<point x="220" y="370" type="line"/>
			<point x="210" y="604" type="line"/>
			<point x="211" y="700" type="line"/>
		</contour>
		<contour>
			<point x="580" y="700" type="line"/>
			<point x="580" y="323" type="line"/>
			<point x="590" y="114" type="line"/>
			<point x="588" y="0" type="line"/>
			<point x="700" y="0" type="line"/>
			<point x="700" y="700" type="line"/>
		</contour>
		<contour>
			<point x="211" y="700" type="line"/>
			<point x="132" y="622" type="line"/>
			<point x="244" y="438" type="line"/>
			<point x="588" y="0" type="line"/>
			<point x="658" y="93" type="line"/>
			<point x="562" y="255" type="line"/>
		</contour>
	</outline>
</glyph>
<glyph name="O" format="2">
	<advance width="820"/>
	<unicode hex="004F"/>
	<outline>
		<contour>
			<point x="410" y="-15" type="curve" smooth="yes"/>
			<point x="610" y="-15"/>
			<point x="760" y="150"/>
			<point x="760" y="350" type="curve" smooth="yes"/>
			<point x="760" y="550"/>
			<point x="610" y="715"/>
			<point x="410" y="715" type="curve" smooth="yes"/>
			<point x="210" y="715"/>
			<point x="60" y="550"/>
			<point x="60" y="350" type="curve" smooth="yes"/>
			<point x="60" y="150"/>
			<point x="210" y="-15"/>
		</contour>
		<contour>
			<point x="410" y="95" type="curve" smooth="yes"/>
			<point x="281" y="95"/>
			<point x="185" y="212"/>
			<point x="185" y="350" type="curve" smooth="yes"/>
			<point x="185" y="488"/>
			<point x="281" y="605"/>
			<point x="410" y="605" type="curve" smooth="yes"/>
			<point x="539" y="605"/>
			<point x="635" y="488"/>
			<point x="635" y="350" type="curve" smooth="yes"/>
			<point x="635" y="212"/>
			<point x="539" y="95"/>
		</contour>
	</outline>
</glyph>
<glyph name="P" format="2">
	<advance width="695"/>
	<unicode hex="0050"/>
	<outline>
		<contour>
			<point x="302" y="220" type="line"/>
			<point x="533" y="220"/>
			<point x="650" y="313"/>
			<point x="650" y="460" type="curve" smooth="yes"/>
			<point x="650" y="607"/>
			<point x="533" y="700"/>
			<point x="302" y="700" type="curve" smooth="yes"/>
			<point x="136" y="700" type="line"/>
			<point x="153" y="590" type="line"/>
			<point x="302" y="590" type="line" smooth="yes"/>
			<point x="465" y="590"/>
			<point x="524" y="543"/>
			<point x="524" y="460" type="curve" smooth="yes"/>
			<point x="524" y="377"/>
			<point x="465" y="330"/>
			<point x="302" y="330" type="curve" smooth="yes"/>
			<point x="161" y="330" type="line"/>
			<point x="147" y="220" type="line"/>
		</contour>
		<contour>
			<point x="100" y="0" type="line"/>
			<point x="225" y="0" type="line"/>
			<point x="225" y="700" type="line"/>
			<point x="100" y="700" type="line"/>
		</contour>
	</outline>
</glyph>
<glyph name="Q" format="2">
	<advance width="820"/>
	<unicode hex="0051"/>
	<outline>
		<contour>
			<point x="410" y="-15" type="curve" smooth="yes"/>
			<point x="622" y="-29"/>
			<point x="760" y="150"/>
			<point x="760" y="350" type="curve" smooth="yes"/>
			<point x="760" y="550"/>
			<point x="610" y="715"/>
			<point x="410" y="715" type="curve" smooth="yes"/>
			<point x="210" y="715"/>
			<point x="60" y="550"/>
			<point x="60" y="350" type="curve" smooth="yes"/>
			<point x="60" y="150"/>
			<point x="210" y="-2"/>
		</contour>
		<contour>
			<point x="410" y="95" type="curve" smooth="yes"/>
			<point x="281" y="95"/>
			<point x="185" y="212"/>
			<point x="185" y="350" type="curve" smooth="yes"/>
			<point x="185" y="488"/>
			<point x="281" y="605"/>
			<point x="410" y="605" type="curve" smooth="yes"/>
			<point x="539" y="605"/>
			<point x="635" y="488"/>
			<point x="635" y="350" type="curve" smooth="yes"/>
			<point x="635" y="212"/>
			<point x="539" y="95"/>
		</contour>
		<contour>
			<point x="327" y="249" type="line"/>
			<point x="568" y="-48" type="line"/>
			<point x="729" y="-48" type="line"/>
			<point x="488" y="249" type="line"/>
		</contour>
	</outline>
</glyph>
<glyph name="R" format="2">
	<advance width="755"/>
	<unicode hex="0052"/>
	<outline>
		<contour>
			<point x="292" y="220" type="line"/>
			<point x="523" y="220"/>
			<point x="650" y="298"/>
			<point x="650" y="460" type="curve" smooth="yes"/>
			<point x="650" y="622"/>
			<point x="523" y="700"/>
			<point x="292" y="700" type="curve" smooth="yes"/>
			<point x="136" y="700" type="line"/>
			<point x="153" y="590" type="line"/>
			<point x="292" y="590" type="line" smooth="yes"/>
			<point x="455" y="590"/>
			<point x="524" y="558"/>
			<point x="524" y="460" type="curve" smooth="yes"/>
			<point x="524" y="362"/>
			<point x="455" y="330"/>
			<point x="292" y="330" type="curve" smooth="yes"/>
			<point x="161" y="330" type="line"/>
			<point x="147" y="220" type="line"/>
		</contour>
		<contour>
			<point x="100" y="0" type="line"/>
			<point x="225" y="0" type="line"/>
			<point x="225" y="700" type="line"/>
			<point x="100" y="700" type="line"/>
		</contour>
		<contour>
			<point x="542" y="0" type="line"/>
			<point x="695" y="0" type="line"/>
			<point x="486" y="292" type="line"/>
			<point x="333" y="292" type="line"/>
		</contour>
	</outline>
</glyph>
<glyph name="S" format="2">
	<advance width="771"/>
	<unicode hex="0053"/>
	<outline>
		<contour>
			<point x="390" y="-15" type="curve" smooth="yes"/>
			<point x="585" y="-15"/>
			<point x="711" y="72"/>
			<point x="711" y="212" type="curve" smooth="yes"/>
			<point x="711" y="375"/>
			<point x="529" y="403"/>
			<point x="403" y="427" type="curve" smooth="yes"/>
			<point x="264" y="453"/>
			<point x="213" y="461"/>
			<point x="213" y="510" type="curve" smooth="yes"/>
			<point x="212" y="565"/>
			<point x="283" y="602"/>
			<point x="387" y="602" type="curve" smooth="yes"/>
			<point x="466" y="602"/>
			<point x="543" y="569"/>
			<point x="588" y="517" type="curve"/>
			<point x="675" y="596" type="line"/>
			<point x="602" y="677"/>
			<point x="511" y="715"/>
			<point x="387" y="715" type="curve" smooth="yes"/>
			<point x="200" y="715"/>
			<point x="86" y="638"/>
			<point x="86" y="507" type="curve" smooth="yes"/>
			<point x="86" y="349"/>
			<point x="255" y="321"/>
			<point x="385" y="297" type="curve" smooth="yes"/>
			<point x="519" y="272"/>
			<point x="579" y="257"/>
			<point x="583" y="206" type="curve"/>
			<point x="583" y="142"/>
			<point x="504" y="98"/>
			<point x="390" y="98" type="curve" smooth="yes"/>
			<point x="291" y="98"/>
			<point x="168" y="144"/>
			<point x="148" y="190" type="curve"/>
			<point x="60" y="107" type="line"/>
			<point x="122" y="33"/>
			<point x="256" y="-15"/>
		</contour>
	</outline>
</glyph>
<glyph name="T" format="2">
	<advance width="720"/>
	<unicode hex="0054"/>
	<outline>
		<contour>
			<point x="298" y="700" type="line"/>
			<point x="298" y="0" type="line"/>
			<point x="423" y="0" type="line"/>
			<point x="423" y="700" type="line"/>
		</contour>
		<contour>
			<point x="60" y="700" type="line"/>
			<point x="60" y="590" type="line"/>
			<point x="660" y="590" type="line"/>
			<point x="660" y="700" type="line"/>
		</contour>
	</outline>
</glyph>
<glyph name="U" format="2">
	<advance width="800"/>
	<unicode hex="0055"/>
	<outline>
		<contour>
			<point x="402" y="-15" type="curve" smooth="yes"/>
			<point x="587" y="-15"/>
			<point x="708" y="127"/>
			<point x="700" y="340" type="curve"/>
			<point x="580" y="340" type="line"/>
			<point x="586" y="189"/>
			<point x="516" y="95"/>
			<point x="402" y="95" type="curve" smooth="yes"/>
			<point x="290" y="95"/>
			<point x="218" y="192"/>
			<point x="225" y="340" type="curve"/>
			<point x="100" y="340" type="line"/>
			<point x="92" y="129"/>
			<point x="217" y="-15"/>
		</contour>
		<contour>
			<point x="100" y="297" type="line"/>
			<point x="225" y="297" type="line"/>
			<point x="225" y="700" type="line"/>
			<point x="100" y="700" type="line"/>
		</contour>
		<contour>
			<point x="580" y="299" type="line"/>
			<point x="700" y="299" type="line"/>
			<point x="700" y="700" type="line"/>
			<point x="580" y="700" type="line"/>
		</contour>
	</outline>
</glyph>
<glyph name="V" format="2">
	<advance width="730"/>
	<unicode hex="0056"/>
	<outline>
		<contour>
			<point x="424" y="0" type="line"/>
			<point x="685" y="700" type="line"/>
			<point x="557" y="700" type="line"/>
			<point x="316" y="0" type="line"/>
		</contour>
		<contour>
			<point x="414" y="0" type="line"/>
			<point x="169" y="700" type="line"/>
			<point x="45" y="700" type="line"/>
			<point x="297" y="0" type="line"/>
		</contour>
	</outline>
</glyph>
<glyph name="W" format="2">
	<advance width="1019"/>
	<unicode hex="0057"/>
	<outline>
		<contour>
			<point x="377" y="0" type="line"/>
			<point x="571" y="700" type="line"/>
			<point x="451" y="700" type="line"/>
			<point x="270" y="0" type="line"/>
		</contour>
		<contour>
			<point x="367" y="0" type="line"/>
			<point x="179" y="700" type="line"/>
			<point x="45" y="700" type="line"/>
			<point x="250" y="0" type="line"/>
		</contour>
		<contour>
			<point x="775" y="0" type="line"/>
			<point x="974" y="700" type="line"/>
			<point x="848" y="700" type="line"/>
			<point x="668" y="0" type="line"/>
		</contour>
		<contour>
			<point x="765" y="0" type="line"/>
			<point x="577" y="700" type="line"/>
			<point x="451" y="700" type="line"/>
			<point x="648" y="0" type="line"/>
		</contour>
	</outline>
</glyph>
<glyph name="X" format="2">
	<advance width="777"/>
	<unicode hex="0058"/>
	<outline>
		<contour>
			<point x="579" y="0" type="line"/>
			<point x="732" y="0" type="line"/>
			<point x="208" y="700" type="line"/>
			<point x="56" y="700" type="line"/>
		</contour>
		<contour>
			<point x="45" y="0" type="line"/>
			<point x="193" y="0" type="line"/>
			<point x="419" y="316" type="line"/>
			<point x="447" y="317" type="line"/>
			<point x="719" y="700" type="line"/>
			<point x="572" y="700" type="line"/>
			<point x="380" y="414" type="line"/>
			<point x="350" y="411" type="line"/>
		</contour>
	</outline>
</glyph>
<glyph name="Y" format="2">
	<advance width="732"/>
	<unicode hex="0059"/>
	<outline>
		<contour>
			<point x="417" y="248" type="line"/>
			<point x="687" y="700" type="line"/>
			<point x="549" y="700" type="line"/>
			<point x="328" y="315" type="line"/>
			<point x="300" y="248" type="line"/>
		</contour>
		<contour>
			<point x="432" y="248" type="line"/>
			<point x="412" y="305" type="line"/>
			<point x="188" y="700" type="line"/>
			<point x="45" y="700" type="line"/>
			<point x="310" y="248" type="line"/>
		</contour>
		<contour>
			<point x="301" y="289" type="line"/>
			<point x="301" y="0" type="line"/>
			<point x="426" y="0" type="line"/>
			<point x="426" y="289" type="line"/>
		</contour>
	</outline>
</glyph>
<glyph name="Z" format="2">
	<advance width="820"/>
	<unicode hex="005A"/>
	<outline>
		<contour>
			<point x="120" y="590" type="line"/>
			<point x="715" y="590" type="line"/>
			<point x="715" y="700" type="line"/>
			<point x="120" y="700" type="line"/>
		</contour>
		<contour>
			<point x="100" y="110" type="line"/>
			<point x="260" y="110" type="line"/>
			<point x="715" y="590" type="line"/>
			<point x="556" y="590" type="line"/>
		</contour>
		<contour>
			<point x="100" y="0" type="line"/>
			<point x="720" y="0" type="line"/>
			<point x="720" y="110" type="line"/>
			<point x="100" y="110" type="line"/>
		</contour>
	</outline>
</glyph>
<glyph name="a" format="2">
	<advance width="682"/>
	<unicode hex="0061"/>
	<outline>
		<contour>
			<point x="330" y="-15" type="curve" smooth="yes"/>
			<point x="469" y="-15"/>
			<point x="580" y="111"/>
			<point x="580" y="250" type="curve" smooth="yes"/>
			<point x="580" y="390"/>
			<point x="471" y="515"/>
			<point x="330" y="515" type="curve" smooth="yes"/>
			<point x="174" y="515"/>
			<point x="60" y="395"/>
			<point x="60" y="250" type="curve" smooth="yes"/>
			<point x="60" y="105"/>
			<point x="174" y="-15"/>
		</contour>
		<contour>
			<point x="330" y="95" type="curve" smooth="yes"/>
			<point x="248" y="95"/>
			<point x="185" y="171"/>
			<point x="185" y="250" type="curve" smooth="yes"/>
			<point x="185" y="330"/>
			<point x="248" y="405"/>
			<point x="330" y="405" type="curve" smooth="yes"/>
			<point x="410" y="405"/>
			<point x="475" y="327"/>
			<point x="475" y="250" type="curve" smooth="yes"/>
			<point x="475" y="173"/>
			<point x="410" y="95"/>
		</contour>
		<contour>
			<point x="475" y="127" type="line"/>
			<point x="475" y="46"/>
			<point x="521" y="0"/>
			<point x="602" y="0" type="curve" smooth="yes"/>
			<point x="664" y="0" type="line"/>
			<point x="664" y="110" type="line"/>
			<point x="612" y="110" type="line" smooth="yes"/>
			<point x="603" y="110"/>
			<point x="600" y="114"/>
			<point x="600" y="126" type="curve" smooth="yes"/>
			<point x="600" y="500" type="line"/>
			<point x="475" y="500" type="line"/>
		</contour>
	</outline>
</glyph>
<glyph name="b" format="2">
	<advance width="625"/>
	<unicode hex="0062"/>
	<outline>
		<contour>
			<point x="30" y="0" type="line"/>
			<point x="155" y="0" type="line"/>
			<point x="155" y="135" type="line"/>
			<point x="123" y="255" type="line"/>
			<point x="155" y="375" type="line"/>
			<point x="155" y="800" type="line"/>
			<point x="30" y="800" type="line"/>
		</contour>
		<contour>
			<point x="315" y="514" type="curve" smooth="yes"/>
			<point x="169" y="514"/>
			<point x="65" y="395"/>
			<point x="65" y="249" type="curve" smooth="yes"/>
			<point x="65" y="102"/>
			<point x="168" y="-16"/>
			<point x="315" y="-16" type="curve" smooth="yes"/>
			<point x="456" y="-16"/>
			<point x="565" y="109"/>
			<point x="565" y="249" type="curve" smooth="yes"/>
			<point x="565" y="389"/>
			<point x="456" y="514"/>
		</contour>
		<contour>
			<point x="295" y="404" type="curve" smooth="yes"/>
			<point x="375" y="404"/>
			<point x="440" y="326"/>
			<point x="440" y="249" type="curve" smooth="yes"/>
			<point x="440" y="172"/>
			<point x="375" y="94"/>
			<point x="295" y="94" type="curve" smooth="yes"/>
			<point x="212" y="94"/>
			<point x="150" y="168"/>
			<point x="150" y="249" type="curve" smooth="yes"/>
			<point x="150" y="328"/>
			<point x="213" y="404"/>
		</contour>
	</outline>
</glyph>
<glyph name="c" format="2">
	<advance width="623"/>
	<unicode hex="0063"/>
	<outline>
		<contour>
			<point x="60" y="250" type="curve" smooth="yes"/>
			<point x="60" y="103"/>
			<point x="176" y="-15"/>
			<point x="340" y="-15" type="curve" smooth="yes"/>
			<point x="435" y="-15"/>
			<point x="508" y="22"/>
			<point x="563" y="99" type="curve"/>
			<point x="477" y="173" type="line"/>
			<point x="438" y="113"/>
			<point x="409" y="95"/>
			<point x="340" y="95" type="curve" smooth="yes"/>
			<point x="251" y="95"/>
			<point x="185" y="169"/>
			<point x="185" y="250" type="curve" smooth="yes"/>
			<point x="185" y="332"/>
			<point x="250" y="405"/>
			<point x="340" y="405" type="curve" smooth="yes"/>
			<point x="401" y="405"/>
			<point x="431" y="386"/>
			<point x="469" y="327" type="curve"/>
			<point x="556" y="401" type="line"/>
			<point x="495" y="482"/>
			<point x="433" y="515"/>
			<point x="340" y="515" type="curve" smooth="yes"/>
			<point x="176" y="515"/>
			<point x="60" y="397"/>
		</contour>
	</outline>
</glyph>
<glyph name="d" format="2">
	<advance width="625"/>
	<unicode hex="0064"/>
	<outline>
		<contour>
			<point x="595" y="0" type="line"/>
			<point x="595" y="800" type="line"/>
			<point x="470" y="800" type="line"/>
			<point x="470" y="395" type="line"/>
			<point x="502" y="255" type="line"/>
			<point x="470" y="135" type="line"/>
			<point x="470" y="0" type="line"/>
		</contour>
		<contour>
			<point x="310" y="514" type="curve" smooth="yes"/>
			<point x="169" y="514"/>
			<point x="60" y="389"/>
			<point x="60" y="249" type="curve" smooth="yes"/>
			<point x="60" y="109"/>
			<point x="169" y="-16"/>
			<point x="310" y="-16" type="curve" smooth="yes"/>
			<point x="457" y="-16"/>
			<point x="560" y="102"/>
			<point x="560" y="249" type="curve" smooth="yes"/>
			<point x="560" y="395"/>
			<point x="456" y="514"/>
		</contour>
		<contour>
			<point x="330" y="404" type="curve" smooth="yes"/>
			<point x="412" y="404"/>
			<point x="475" y="328"/>
			<point x="475" y="249" type="curve" smooth="yes"/>
			<point x="475" y="148"/>
			<point x="413" y="94"/>
			<point x="330" y="94" type="curve" smooth="yes"/>
			<point x="250" y="94"/>
			<point x="185" y="172"/>
			<point x="185" y="249" type="curve" smooth="yes"/>
			<point x="185" y="326"/>
			<point x="250" y="404"/>
		</contour>
	</outline>
</glyph>
<glyph name="e" format="2">
	<advance width="660"/>
	<unicode hex="0065"/>
	<outline>
		<contour>
			<point x="340" y="-35" type="curve" smooth="yes"/>
			<point x="483" y="-35"/>
			<point x="537" y="24"/>
			<point x="578" y="70" type="curve"/>
			<point x="499" y="148" type="line"/>
			<point x="463" y="108"/>
			<point x="421" y="75"/>
			<point x="340" y="75" type="curve" smooth="yes"/>
			<point x="251" y="75"/>
			<point x="185" y="149"/>
			<point x="185" y="250" type="curve" smooth="yes"/>
			<point x="185" y="350"/>
			<point x="248" y="425"/>
			<point x="330" y="425" type="curve" smooth="yes"/>
			<point x="410" y="425"/>
			<point x="475" y="347"/>
			<point x="475" y="250" type="curve" smooth="yes"/>
			<point x="475" y="230"/>
			<point x="472" y="209"/>
			<point x="465" y="195" type="curve"/>
			<point x="597" y="195" type="line"/>
			<point x="598" y="214"/>
			<point x="600" y="231"/>
			<point x="600" y="250" type="curve" smooth="yes"/>
			<point x="600" y="415"/>
			<point x="486" y="535"/>
			<point x="330" y="535" type="curve" smooth="yes"/>
			<point x="174" y="535"/>
			<point x="60" y="415"/>
			<point x="60" y="250" type="curve" smooth="yes"/>
			<point x="60" y="83"/>
			<point x="176" y="-35"/>
		</contour>
		<contour>
			<point x="100" y="195" type="line"/>
			<point x="581" y="195" type="line"/>
			<point x="581" y="305" type="line"/>
			<point x="100" y="305" type="line"/>
		</contour>
	</outline>
</glyph>
<glyph name="f" format="2">
	<advance width="510"/>
	<unicode hex="0066"/>
	<outline>
		<contour>
			<point x="181" y="673" type="curve" smooth="yes"/>
			<point x="181" y="0" type="line"/>
			<point x="306" y="0" type="line"/>
			<point x="306" y="674" type="line" smooth="yes"/>
			<point x="306" y="686"/>
			<point x="309" y="690"/>
			<point x="318" y="690" type="curve" smooth="yes"/>
			<point x="440" y="690" type="line"/>
			<point x="440" y="800" type="line"/>
			<point x="308" y="800" type="line" smooth="yes"/>
			<point x="227" y="800"/>
			<point x="181" y="754"/>
		</contour>
		<contour>
			<point x="60" y="520" type="line"/>
			<point x="60" y="410" type="line"/>
			<point x="450" y="410" type="line"/>
			<point x="450" y="520" type="line"/>
		</contour>
	</outline>
</glyph>
<glyph name="g" format="2">
	<advance width="625"/>
	<unicode hex="0067"/>
	<outline>
		<contour>
			<point x="213" y="-40" type="curve"/>
			<point x="86" y="-40" type="line"/>
			<point x="59" y="-311"/>
			<point x="595" y="-398"/>
			<point x="595" y="27" type="curve" smooth="yes"/>
			<point x="595" y="499" type="line"/>
			<point x="470" y="499" type="line"/>
			<point x="470" y="384" type="line"/>
			<point x="502" y="244" type="line"/>
			<point x="470" y="104" type="line"/>
			<point x="470" y="20" type="line" smooth="yes"/>
			<point x="470" y="-255"/>
			<point x="177" y="-156"/>
		</contour>
		<contour>
			<point x="310" y="-15" type="curve" smooth="yes"/>
			<point x="456" y="-15"/>
			<point x="560" y="104"/>
			<point x="560" y="250" type="curve" smooth="yes"/>
			<point x="560" y="417"/>
			<point x="457" y="515"/>
			<point x="310" y="515" type="curve" smooth="yes"/>
			<point x="169" y="515"/>
			<point x="60" y="390"/>
			<point x="60" y="250" type="curve" smooth="yes"/>
			<point x="60" y="110"/>
			<point x="169" y="-15"/>
		</contour>
		<contour>
			<point x="330" y="95" type="curve" smooth="yes"/>
			<point x="250" y="95"/>
			<point x="185" y="173"/>
			<point x="185" y="250" type="curve" smooth="yes"/>
			<point x="185" y="327"/>
			<point x="250" y="405"/>
			<point x="330" y="405" type="curve" smooth="yes"/>
			<point x="413" y="405"/>
			<point x="475" y="331"/>
			<point x="475" y="250" type="curve" smooth="yes"/>
			<point x="475" y="171"/>
			<point x="412" y="95"/>
		</contour>
	</outline>
</glyph>
<glyph name="h" format="2">
	<advance width="590"/>
	<unicode hex="0068"/>
	<outline>
		<contour>
			<point x="30" y="799" type="line"/>
			<point x="30" y="0" type="line"/>
			<point x="155" y="0" type="line"/>
			<point x="155" y="799" type="line"/>
		</contour>
		<contour>
			<point x="435" y="254" type="line"/>
			<point x="435" y="0" type="line"/>
			<point x="560" y="0" type="line"/>
			<point x="560" y="216" type="line"/>
		</contour>
		<contour>
			<point x="83" y="123" type="curve"/>
			<point x="155" y="126" type="line"/>
			<point x="152" y="316"/>
			<point x="200" y="405"/>
			<point x="299" y="405" type="curve" smooth="yes"/>
			<point x="399" y="405"/>
			<point x="439" y="338"/>
			<point x="435" y="168" type="curve"/>
			<point x="560" y="183" type="line"/>
			<point x="565" y="387"/>
			<point x="475" y="515"/>
			<point x="325" y="515" type="curve" smooth="yes"/>
			<point x="156" y="515"/>
			<point x="79" y="389"/>
		</contour>
	</outline>
</glyph>
<glyph name="i" format="2">
	<advance width="280"/>
	<unicode hex="0069"/>
	<outline>
		<contour>
			<point x="124" y="628" type="curve" smooth="yes"/>
			<point x="165" y="628"/>
			<point x="200" y="662"/>
			<point x="200" y="703" type="curve" smooth="yes"/>
			<point x="200" y="744"/>
			<point x="165" y="778"/>
			<point x="124" y="778" type="curve" smooth="yes"/>
			<point x="83" y="778"/>
			<point x="50" y="744"/>
			<point x="50" y="703" type="curve" smooth="yes"/>
			<point x="50" y="662"/>
			<point x="83" y="628"/>
		</contour>
		<contour>
			<point x="73" y="127" type="line"/>
			<point x="73" y="46"/>
			<point x="119" y="0"/>
			<point x="200" y="0" type="curve" smooth="yes"/>
			<point x="262" y="0" type="line"/>
			<point x="262" y="110" type="line"/>
			<point x="210" y="110" type="line" smooth="yes"/>
			<point x="201" y="110"/>
			<point x="198" y="114"/>
			<point x="198" y="126" type="curve" smooth="yes"/>
			<point x="198" y="500" type="line"/>
			<point x="73" y="500" type="line"/>
		</contour>
		<contour>
			<point x="30" y="500" type="line"/>
			<point x="30" y="390" type="line"/>
			<point x="190" y="390" type="line"/>
			<point x="190" y="500" type="line"/>
		</contour>
	</outline>
</glyph>
<glyph name="j" format="2">
	<advance width="278"/>
	<unicode hex="006A"/>
	<outline>
		<contour>
			<point x="167" y="628" type="curve" smooth="yes"/>
			<point x="208" y="628"/>
			<point x="241" y="662"/>
			<point x="241" y="703" type="curve" smooth="yes"/>
			<point x="241" y="744"/>
			<point x="208" y="778"/>
			<point x="167" y="778" type="curve" smooth="yes"/>
			<point x="126" y="778"/>
			<point x="91" y="744"/>
			<point x="91" y="703" type="curve" smooth="yes"/>
			<point x="91" y="662"/>
			<point x="126" y="628"/>
		</contour>
		<contour>
			<point x="30" y="-77" type="curve"/>
			<point x="30" y="-198" type="line"/>
			<point x="174" y="-208"/>
			<point x="255" y="-116"/>
			<point x="248" y="47" type="curve"/>
			<point x="122" y="47" type="line"/>
			<point x="129" y="-44"/>
			<point x="92" y="-90"/>
		</contour>
		<contour>
			<point x="123" y="-4" type="line"/>
			<point x="248" y="-4" type="line"/>
			<point x="248" y="500" type="line"/>
			<point x="123" y="500" type="line"/>
		</contour>
		<contour>
			<point x="30" y="500" type="line"/>
			<point x="30" y="390" type="line"/>
			<point x="190" y="390" type="line"/>
			<point x="190" y="500" type="line"/>
		</contour>
	</outline>
</glyph>
<glyph name="k" format="2">
	<advance width="600"/>
	<unicode hex="006B"/>
	<outline>
		<contour>
			<point x="30" y="0" type="line"/>
			<point x="155" y="0" type="line"/>
			<point x="155" y="800" type="line"/>
			<point x="30" y="800" type="line"/>
		</contour>
		<contour>
			<point x="570" y="0" type="line"/>
			<point x="214" y="359" type="line"/>
			<point x="149" y="248" type="line"/>
			<point x="396" y="0" type="line"/>
		</contour>
		<contour>
			<point x="61" y="58" type="line"/>
			<point x="539" y="520" type="line"/>
			<point x="374" y="520" type="line"/>
			<point x="54" y="211" type="line"/>
		</contour>
	</outline>
</glyph>
<glyph name="l" format="2">
	<advance width="237"/>
	<unicode hex="006C"/>
	<outline>
		<contour>
			<point x="30" y="127" type="line"/>
			<point x="30" y="46"/>
			<point x="76" y="0"/>
			<point x="157" y="0" type="curve" smooth="yes"/>
			<point x="219" y="0" type="line"/>
			<point x="219" y="110" type="line"/>
			<point x="167" y="110" type="line" smooth="yes"/>
			<point x="158" y="110"/>
			<point x="155" y="114"/>
			<point x="155" y="126" type="curve" smooth="yes"/>
			<point x="155" y="800" type="line"/>
			<point x="30" y="800" type="line"/>
		</contour>
	</outline>
</glyph>
<glyph name="m" format="2">
	<advance width="955"/>
	<unicode hex="006D"/>
	<outline>
		<contour>
			<point x="30" y="500" type="line"/>
			<point x="30" y="0" type="line"/>
			<point x="155" y="0" type="line"/>
			<point x="155" y="500" type="line"/>
		</contour>
		<contour>
			<point x="415" y="254" type="line"/>
			<point x="415" y="0" type="line"/>
			<point x="540" y="0" type="line"/>
			<point x="540" y="216" type="line"/>
		</contour>
		<contour>
			<point x="83" y="123" type="curve"/>
			<point x="155" y="126" type="line"/>
			<point x="152" y="316"/>
			<point x="200" y="405"/>
			<point x="299" y="405" type="curve" smooth="yes"/>
			<point x="385" y="405"/>
			<point x="418" y="342"/>
			<point x="415" y="168" type="curve"/>
			<point x="540" y="183" type="line"/>
			<point x="546" y="390"/>
			<point x="466" y="515"/>
			<point x="325" y="515" type="curve" smooth="yes"/>
			<point x="156" y="515"/>
			<point x="79" y="389"/>
		</contour>
		<contour>
			<point x="800" y="254" type="line"/>
			<point x="800" y="0" type="line"/>
			<point x="925" y="0" type="line"/>
			<point x="925" y="216" type="line"/>
		</contour>
		<contour>
			<point x="448" y="124" type="curve"/>
			<point x="540" y="125" type="line"/>
			<point x="537" y="315"/>
			<point x="585" y="405"/>
			<point x="684" y="405" type="curve" smooth="yes"/>
			<point x="770" y="405"/>
			<point x="803" y="342"/>
			<point x="800" y="168" type="curve"/>
			<point x="925" y="183" type="line"/>
			<point x="931" y="390"/>
			<point x="851" y="515"/>
			<point x="710" y="515" type="curve" smooth="yes"/>
			<point x="525" y="515"/>
			<point x="444" y="390"/>
		</contour>
	</outline>
</glyph>
<glyph name="n" format="2">
	<advance width="590"/>
	<unicode hex="006E"/>
	<outline>
		<contour>
			<point x="30" y="500" type="line"/>
			<point x="30" y="0" type="line"/>
			<point x="155" y="0" type="line"/>
			<point x="155" y="500" type="line"/>
		</contour>
		<contour>
			<point x="435" y="254" type="line"/>
			<point x="435" y="0" type="line"/>
			<point x="560" y="0" type="line"/>
			<point x="560" y="216" type="line"/>
		</contour>
		<contour>
			<point x="83" y="123" type="curve"/>
			<point x="155" y="126" type="line"/>
			<point x="151" y="310"/>
			<point x="205" y="405"/>
			<point x="309" y="405" type="curve" smooth="yes"/>
			<point x="400" y="405"/>
			<point x="439" y="335"/>
			<point x="435" y="168" type="curve"/>
			<point x="560" y="183" type="line"/>
			<point x="565" y="392"/>
			<point x="482" y="515"/>
			<point x="335" y="515" type="curve" smooth="yes"/>
			<point x="164" y="515"/>
			<point x="78" y="381"/>
		</contour>
	</outline>
</glyph>
<glyph name="o" format="2">
	<advance width="660"/>
	<unicode hex="006F"/>
	<outline>
		<contour>
			<point x="330" y="-15" type="curve" smooth="yes"/>
			<point x="485" y="-15"/>
			<point x="600" y="106"/>
			<point x="600" y="250" type="curve" smooth="yes"/>
			<point x="600" y="395"/>
			<point x="486" y="515"/>
			<point x="330" y="515" type="curve" smooth="yes"/>
			<point x="174" y="515"/>
			<point x="60" y="395"/>
			<point x="60" y="250" type="curve" smooth="yes"/>
			<point x="60" y="105"/>
			<point x="174" y="-15"/>
		</contour>
		<contour>
			<point x="330" y="95" type="curve" smooth="yes"/>
			<point x="248" y="95"/>
			<point x="185" y="171"/>
			<point x="185" y="250" type="curve" smooth="yes"/>
			<point x="185" y="330"/>
			<point x="248" y="405"/>
			<point x="330" y="405" type="curve" smooth="yes"/>
			<point x="410" y="405"/>
			<point x="475" y="327"/>
			<point x="475" y="250" type="curve" smooth="yes"/>
			<point x="475" y="173"/>
			<point x="410" y="95"/>
		</contour>
	</outline>
</glyph>
<glyph name="p" format="2">
	<advance width="625"/>
	<unicode hex="0070"/>
	<outline>
		<contour>
			<point x="30" y="499" type="line"/>
			<point x="30" y="-200" type="line"/>
			<point x="155" y="-200" type="line"/>
			<point x="155" y="124" type="line"/>
			<point x="123" y="244" type="line"/>
			<point x="155" y="364" type="line"/>
			<point x="155" y="499" type="line"/>
		</contour>
		<contour>
			<point x="315" y="-15" type="curve" smooth="yes"/>
			<point x="456" y="-15"/>
			<point x="565" y="110"/>
			<point x="565" y="250" type="curve" smooth="yes"/>
			<point x="565" y="390"/>
			<point x="456" y="515"/>
			<point x="315" y="515" type="curve" smooth="yes"/>
			<point x="168" y="515"/>
			<point x="65" y="397"/>
			<point x="65" y="250" type="curve" smooth="yes"/>
			<point x="65" y="104"/>
			<point x="169" y="-15"/>
		</contour>
		<contour>
			<point x="295" y="95" type="curve" smooth="yes"/>
			<point x="213" y="95"/>
			<point x="150" y="171"/>
			<point x="150" y="250" type="curve" smooth="yes"/>
			<point x="150" y="331"/>
			<point x="212" y="405"/>
			<point x="295" y="405" type="curve" smooth="yes"/>
			<point x="375" y="405"/>
			<point x="440" y="327"/>
			<point x="440" y="250" type="curve" smooth="yes"/>
			<point x="440" y="173"/>
			<point x="375" y="95"/>
		</contour>
	</outline>
</glyph>
<glyph name="q" format="2">
	<advance width="625"/>
	<unicode hex="0071"/>
	<outline>
		<contour>
			<point x="595" y="499" type="line"/>
			<point x="470" y="499" type="line"/>
			<point x="470" y="364" type="line"/>
			<point x="502" y="244" type="line"/>
			<point x="470" y="124" type="line"/>
			<point x="470" y="-200" type="line"/>
			<point x="595" y="-200" type="line"/>
		</contour>
		<contour>
			<point x="310" y="-15" type="curve" smooth="yes"/>
			<point x="456" y="-15"/>
			<point x="560" y="104"/>
			<point x="560" y="250" type="curve" smooth="yes"/>
			<point x="560" y="397"/>
			<point x="457" y="515"/>
			<point x="310" y="515" type="curve" smooth="yes"/>
			<point x="169" y="515"/>
			<point x="60" y="390"/>
			<point x="60" y="250" type="curve" smooth="yes"/>
			<point x="60" y="110"/>
			<point x="169" y="-15"/>
		</contour>
		<contour>
			<point x="330" y="95" type="curve" smooth="yes"/>
			<point x="250" y="95"/>
			<point x="185" y="173"/>
			<point x="185" y="250" type="curve" smooth="yes"/>
			<point x="185" y="327"/>
			<point x="250" y="405"/>
			<point x="330" y="405" type="curve" smooth="yes"/>
			<point x="413" y="405"/>
			<point x="475" y="331"/>
			<point x="475" y="250" type="curve" smooth="yes"/>
			<point x="475" y="171"/>
			<point x="412" y="95"/>
		</contour>
	</outline>
</glyph>
<glyph name="r" format="2">
	<advance width="445"/>
	<unicode hex="0072"/>
	<outline>
		<contour>
			<point x="30" y="500" type="line"/>
			<point x="30" y="0" type="line"/>
			<point x="155" y="0" type="line"/>
			<point x="155" y="500" type="line"/>
		</contour>
		<contour>
			<point x="83" y="133" type="curve"/>
			<point x="155" y="136" type="line"/>
			<point x="151" y="330"/>
			<point x="211" y="401"/>
			<point x="385" y="395" type="curve"/>
			<point x="385" y="505" type="line"/>
			<point x="169" y="513"/>
			<point x="78" y="392"/>
		</contour>
	</outline>
</glyph>
<glyph name="s" format="2">
	<advance width="627"/>
	<unicode hex="0073"/>
	<outline>
		<contour>
			<point x="448" y="146" type="curve" smooth="yes"/>
			<point x="449" y="112"/>
			<point x="389" y="95"/>
			<point x="317" y="95" type="curve" smooth="yes"/>
			<point x="240" y="95"/>
			<point x="173" y="135"/>
			<point x="150" y="176" type="curve"/>
			<point x="60" y="99" type="line"/>
			<point x="103" y="31"/>
			<point x="209" y="-15"/>
			<point x="317" y="-15" type="curve" smooth="yes"/>
			<point x="464" y="-15"/>
			<point x="567" y="43"/>
			<point x="567" y="146" type="curve" smooth="yes"/>
			<point x="567" y="240"/>
			<point x="491" y="268"/>
			<point x="335" y="301" type="curve" smooth="yes"/>
			<point x="235" y="321"/>
			<point x="205" y="340"/>
			<point x="205" y="363" type="curve" smooth="yes"/>
			<point x="205" y="389"/>
			<point x="253" y="405"/>
			<point x="317" y="405" type="curve" smooth="yes"/>
			<point x="384" y="405"/>
			<point x="454" y="370"/>
			<point x="480" y="335" type="curve"/>
			<point x="559" y="401" type="line"/>
			<point x="509" y="474"/>
			<point x="421" y="515"/>
			<point x="317" y="515" type="curve" smooth="yes"/>
			<point x="175" y="515"/>
			<point x="85" y="459"/>
			<point x="85" y="360" type="curve" smooth="yes"/>
			<point x="85" y="239"/>
			<point x="212" y="225"/>
			<point x="317" y="201" type="curve" smooth="yes"/>
			<point x="416" y="180"/>
			<point x="448" y="173"/>
		</contour>
	</outline>
</glyph>
<glyph name="t" format="2">
	<advance width="510"/>
	<unicode hex="0074"/>
	<outline>
		<contour>
			<point x="181" y="127" type="line"/>
			<point x="181" y="46"/>
			<point x="227" y="0"/>
			<point x="308" y="0" type="curve" smooth="yes"/>
			<point x="440" y="0" type="line"/>
			<point x="440" y="110" type="line"/>
			<point x="318" y="110" type="line" smooth="yes"/>
			<point x="309" y="110"/>
			<point x="306" y="114"/>
			<point x="306" y="126" type="curve" smooth="yes"/>
			<point x="306" y="740" type="line"/>
			<point x="181" y="740" type="line"/>
		</contour>
		<contour>
			<point x="60" y="410" type="line"/>
			<point x="450" y="410" type="line"/>
			<point x="450" y="520" type="line"/>
			<point x="60" y="520" type="line"/>
		</contour>
	</outline>
</glyph>
<glyph name="u" format="2">
	<advance width="570"/>
	<unicode hex="0075"/>
	<outline>
		<contour>
			<point x="540" y="0" type="line"/>
			<point x="540" y="500" type="line"/>
			<point x="415" y="500" type="line"/>
			<point x="415" y="0" type="line"/>
		</contour>
		<contour>
			<point x="155" y="186" type="line"/>
			<point x="155" y="500" type="line"/>
			<point x="30" y="500" type="line"/>
			<point x="30" y="224" type="line"/>
		</contour>
		<contour>
			<point x="487" y="377" type="curve"/>
			<point x="415" y="374" type="line"/>
			<point x="419" y="190"/>
			<point x="365" y="95"/>
			<point x="261" y="95" type="curve" smooth="yes"/>
			<point x="181" y="95"/>
			<point x="152" y="148"/>
			<point x="155" y="292" type="curve"/>
			<point x="30" y="277" type="line"/>
			<point x="25" y="95"/>
			<point x="102" y="-15"/>
			<point x="235" y="-15" type="curve" smooth="yes"/>
			<point x="406" y="-15"/>
			<point x="492" y="119"/>
		</contour>
	</outline>
</glyph>
<glyph name="v" format="2">
	<advance width="594"/>
	<unicode hex="0076"/>
	<outline>
		<contour>
			<point x="363" y="0" type="line"/>
			<point x="564" y="500" type="line"/>
			<point x="435" y="500" type="line"/>
			<point x="244" y="0" type="line"/>
		</contour>
		<contour>
			<point x="363" y="0" type="line"/>
			<point x="319" y="98" type="line"/>
			<point x="166" y="500" type="line"/>
			<point x="30" y="500" type="line"/>
			<point x="235" y="0" type="line"/>
		</contour>
	</outline>
</glyph>
<glyph name="x" format="2">
	<advance width="601"/>
	<unicode hex="0078"/>
	<outline>
		<contour>
			<point x="571" y="0" type="line"/>
			<point x="191" y="500" type="line"/>
			<point x="46" y="500" type="line"/>
			<point x="426" y="0" type="line"/>
		</contour>
		<contour>
			<point x="169" y="0" type="line"/>
			<point x="330" y="218" type="line"/>
			<point x="349" y="219" type="line"/>
			<point x="556" y="500" type="line"/>
			<point x="417" y="500" type="line"/>
			<point x="291" y="314" type="line"/>
			<point x="272" y="312" type="line"/>
			<point x="30" y="0" type="line"/>
		</contour>
	</outline>
</glyph>
<glyph name="y" format="2">
	<advance width="594"/>
	<unicode hex="0079"/>
	<outline>
		<contour>
			<point x="355" y="-20" type="line"/>
			<point x="564" y="500" type="line"/>
			<point x="435" y="500" type="line"/>
			<point x="236" y="-20" type="line"/>
		</contour>
		<contour>
			<point x="353" y="27" type="line"/>
			<point x="319" y="98" type="line"/>
			<point x="166" y="500" type="line"/>
			<point x="30" y="500" type="line"/>
			<point x="244" y="-23" type="line"/>
		</contour>
		<contour>
			<point x="331" y="-81" type="curve" smooth="yes"/>
			<point x="379" y="40" type="line"/>
			<point x="257" y="40" type="line"/>
			<point x="220" y="-56" type="line" smooth="yes"/>
			<point x="210" y="-81"/>
			<point x="196" y="-90"/>
			<point x="172" y="-90" type="curve" smooth="yes"/>
			<point x="77" y="-90" type="line"/>
			<point x="77" y="-200" type="line"/>
			<point x="176" y="-200" type="line" smooth="yes"/>
			<point x="248" y="-200"/>
			<point x="298" y="-164"/>
		</contour>
	</outline>
</glyph>
<glyph name="z" format="2">
	<advance width="543"/>
	<unicode hex="007A"/>
	<outline>
		<contour>
			<point x="50" y="390" type="line"/>
			<point x="507" y="390" type="line"/>
			<point x="507" y="500" type="line"/>
			<point x="50" y="500" type="line"/>
		</contour>
		<contour>
			<point x="30" y="110" type="line"/>
			<point x="191" y="110" type="line"/>
			<point x="507" y="390" type="line"/>
			<point x="346" y="390" type="line"/>
		</contour>
		<contour>
			<point x="30" y="0" type="line"/>
			<point x="513" y="0" type="line"/>
			<point x="513" y="110" type="line"/>
			<point x="30" y="110" type="line"/>
		</contour>
	</outline>
</glyph>
<glyph name="a.ss01" format="2">
	<advance width="584"/>
	<outline>
		<contour>
			<point x="260" y="-15" type="curve" smooth="yes"/>
			<point x="390" y="-15"/>
			<point x="467" y="78"/>
			<point x="483" y="228" type="curve"/>
			<point x="472" y="273" type="line"/>
			<point x="433" y="269" type="line"/>
			<point x="429" y="223"/>
			<point x="373" y="95"/>
			<point x="260" y="95" type="curve" smooth="yes"/>
			<point x="199" y="95"/>
			<point x="155" y="127"/>
			<point x="155" y="167" type="curve" smooth="yes"/>
			<point x="155" y="196"/>
			<point x="187" y="225"/>
			<point x="240" y="225" type="curve" smooth="yes"/>
			<point x="320" y="225"/>
			<point x="375" y="213"/>
			<point x="451" y="202" type="curve"/>
			<point x="452" y="302" type="line"/>
			<point x="381" y="313"/>
			<point x="323" y="325"/>
			<point x="240" y="325" type="curve" smooth="yes"/>
			<point x="102" y="325"/>
			<point x="30" y="272"/>
			<point x="30" y="149" type="curve" smooth="yes"/>
			<point x="30" y="49"/>
			<point x="111" y="-15"/>
		</contour>
		<contour>
			<point x="512" y="0" type="curve" smooth="yes"/>
			<point x="554" y="0" type="line"/>
			<point x="554" y="110" type="line"/>
			<point x="522" y="110" type="line" smooth="yes"/>
			<point x="513" y="110"/>
			<point x="510" y="114"/>
			<point x="510" y="126" type="curve" smooth="yes"/>
			<point x="510" y="321" type="line"/>
			<point x="385" y="321" type="line"/>
			<point x="385" y="127" type="line" smooth="yes"/>
			<point x="385" y="46"/>
			<point x="431" y="0"/>
		</contour>
		<contour>
			<point x="70" y="432" type="curve"/>
			<point x="154" y="358" type="line"/>
			<point x="186" y="393"/>
			<point x="220" y="405"/>
			<point x="280" y="405" type="curve" smooth="yes"/>
			<point x="356" y="405"/>
			<point x="389" y="354"/>
			<point x="385" y="240" type="curve"/>
			<point x="510" y="240" type="line"/>
			<point x="516" y="416"/>
			<point x="434" y="515"/>
			<point x="280" y="515" type="curve" smooth="yes"/>
			<point x="166" y="515"/>
			<point x="109" y="473"/>
		</contour>
	</outline>
</glyph>
